<?xml version="1.0" encoding="UTF-8" standalone="no"?>
<!-- Created with Inkscape (http://www.inkscape.org/) -->

<svg
   version="1.1"
   id="svg1"
   width="345"
   height="121"
   viewBox="0 0 345 121"
   sodipodi:docname="logo.svg"
   inkscape:version="1.3.2 (091e20e, 2023-11-25, custom)"
   xmlns:inkscape="http://www.inkscape.org/namespaces/inkscape"
   xmlns:sodipodi="http://sodipodi.sourceforge.net/DTD/sodipodi-0.dtd"
   xmlns="http://www.w3.org/2000/svg"
   xmlns:svg="http://www.w3.org/2000/svg">
  <sodipodi:namedview
     id="namedview1"
     pagecolor="#ffffff"
     bordercolor="#000000"
     borderopacity="0.25"
     inkscape:showpageshadow="2"
     inkscape:pageopacity="0.0"
     inkscape:pagecheckerboard="0"
     inkscape:deskcolor="#d1d1d1"
     inkscape:zoom="6.7881944"
     inkscape:cx="110.33862"
     inkscape:cy="110.04399"
     inkscape:window-width="1636"
     inkscape:window-height="1360"
     inkscape:window-x="-7"
     inkscape:window-y="1080"
     inkscape:window-maximized="0"
     inkscape:current-layer="svg1" />
  <defs
     id="defs1">
    <filter
       style="color-interpolation-filters:sRGB"
       inkscape:label="Drop Shadow"
       id="filter31"
       x="-0.044494265"
       y="-0.090179964"
       width="1.1111262"
       height="1.2170702">
      <feFlood
         result="flood"
         in="SourceGraphic"
         flood-opacity="0.643137"
         flood-color="rgb(0,0,0)"
         id="feFlood30" />
      <feGaussianBlur
         result="blur"
         in="SourceGraphic"
         stdDeviation="4.200000"
         id="feGaussianBlur30" />
      <feOffset
         result="offset"
         in="blur"
         dx="5.015198"
         dy="4.103343"
         id="feOffset30" />
      <feComposite
         result="comp1"
         operator="in"
         in="flood"
         in2="offset"
         id="feComposite30" />
      <feComposite
         result="comp2"
         operator="over"
         in="SourceGraphic"
         in2="comp1"
         id="feComposite31" />
    </filter>
  </defs>
  <path
     style="fill:#823529;fill-opacity:1;filter:url(#filter31)"
     d="m 183.12,113.30494 c -80.92031,-0.0831 -79.27858,-0.0576 -78.19563,-1.21536 0.1564,-0.1672 4.07169,-7 8.70064,-15.184005 10.46274,-18.49814 19.54517,-34.51923 39.81942,-70.24 3.49627,-6.16 8.11137,-14.296 10.25579,-18.0799996 l 3.89893,-6.88 4.36043,-0.089 c 2.39823,-0.049 4.35869,0.023 4.35657,0.16 -0.002,0.13697 -0.37694,0.89703 -0.83293,1.68903 -0.95105,1.65187 -16.6117,29.2671996 -19.32676,34.0799996 -0.99287,1.76 -5.19341,9.176 -9.33452,16.48 -4.14111,7.304 -11.24052,19.832 -15.77648,27.84 -4.53596,8.008 -9.3855,16.5593 -10.77677,19.002895 -1.39127,2.44359 -2.47653,4.49593 -2.4117,4.56077 0.0648,0.0648 29.55913,0.0815 65.54288,0.0371 l 65.425,-0.0808 -10.68771,-18.880005 c -5.87824,-10.384 -17.49332,-30.904 -25.81129,-45.6 -8.31797,-14.696 -15.41273,-27.224 -15.76613,-27.84 C 192.51522,6.0156754 190.4,2.1789054 190.4,1.8924754 c 0,-0.2473 11.14039,-0.34687 38.8,-0.34676 l 38.8,1.5e-4 1.30716,2.31985 c 2.72139,4.82977 5.61928,9.9462396 10.19482,17.9998496 2.59979,4.576 7.54462,13.288 10.98852,19.36 3.44389,6.072 8.91909,15.72 12.1671,21.44 3.24802,5.72 6.79964,11.984 7.8925,13.92 1.09285,1.936 4.15292,7.336 6.80015,12 11.35119,19.999045 13.84976,24.424195 13.84976,24.529015 0,0.061 -2.00148,0.11099 -4.44772,0.11099 h -4.44772 L 312.29754,95.545565 c -5.50386,-9.724 -10.82001,-19.12 -11.81367,-20.88 -0.99366,-1.76 -8.41352,-14.864 -16.48858,-29.12 -8.07507,-14.256 -15.57164,-27.504 -16.65907,-29.44 -1.08742,-1.936 -2.401,-4.24 -2.91906,-5.12 l -0.94192,-1.5999996 -30.01249,-0.0816 c -25.96726,-0.0707 -29.98873,-0.0198 -29.83625,0.37761 0.0969,0.2526 1.96606,3.6013396 4.15362,7.4416496 2.18756,3.84031 8.98676,15.83838 15.10932,26.66238 6.12257,10.824 12.02802,21.264 13.12322,23.2 1.0952,1.936 2.9272,5.176 4.07111,7.2 1.14391,2.024 6.5624,11.59143 12.04109,21.26096 5.47868,9.669525 9.85187,17.661525 9.71819,17.760005 -0.13367,0.0985 -35.55905,0.14275 -78.72305,0.0984 z"
     id="path1" />
  <path
     style="fill:#ccc9c5;fill-opacity:1"
     d="m 148.64034,100.82185 c -2.68277,-0.988815 -3.53608,-3.684865 -1.92,-6.066295 0.44,-0.64838 0.8,-1.24136 0.8,-1.31775 0,-0.0764 -2.772,-0.17799 -6.16,-0.22579 l -6.16,-0.0869 v -14.719998 -14.72 h 9.76 9.76 v 2.56 2.56 l -6.8,0.0864 -6.8,0.0864 v 3.19364 3.19363 h 6.57346 6.57346 l -0.0935,2.48 -0.0935,2.48 -6.48,0.0866 -6.48,0.0866 v 3.66702 3.667008 l 6.8,0.0864 6.8,0.0864 0.0923,2.6025 0.0923,2.60249 -1.7583,0.99232 c -2.65764,1.49988 -3.16765,3.18295 -0.82237,2.71389 0.70248,-0.14049 0.97004,0.0385 1.69507,1.13413 1.0864,1.64165 1.07762,1.82619 -0.11627,2.443575 -1.42148,0.73508 -3.76228,0.88089 -5.2628,0.32784 z m -31.75108,-15.812263 -9.03108,-9.16448 -0.009,8.73201 -0.009,8.732008 -2.96,-0.092 -2.96,-0.092 -0.0831,-15.084568 c -0.0719,-13.04525 -0.0194,-15.10903 0.38841,-15.2655 0.31694,-0.12163 3.38645,2.80087 9.36311,8.91465 l 8.89159,9.09559 0.16,-8.55008 0.16,-8.55009 h 2.88 2.88 v 15.17334 c 0,9.854788 -0.11216,15.198268 -0.32,15.244478 -0.176,0.0391 -4.38398,-4.05287 -9.35108,-9.093338 z m 168.35909,8.147518 c -0.89194,-0.89193 -1.088,-1.33019 -1.088,-2.432 0,-1.1018 0.19606,-1.54006 1.088,-2.432 0.89193,-0.891928 1.33019,-1.087998 2.432,-1.087998 1.1018,0 1.54006,0.19607 2.432,1.087998 0.89193,0.89194 1.088,1.3302 1.088,2.432 0,1.10181 -0.19607,1.54007 -1.088,2.432 -0.89194,0.89194 -1.3302,1.088 -2.432,1.088 -1.10181,0 -1.54007,-0.19606 -2.432,-1.088 z M 63.0831,79.069337 c -2.88048,-8.16466 -5.13998,-15.0022 -5.02111,-15.19453 0.1295,-0.20954 1.33079,-0.34966 2.99724,-0.3496 l 2.78111,9e-5 2.68709,7.85682 c 1.47789,4.32125 2.80471,7.73919 2.94848,7.59542 0.14378,-0.14377 1.6916,-3.78738 3.43962,-8.09691 1.92483,-4.74544 3.36437,-7.87319 3.65026,-7.93104 0.4773,-0.0966 1.41322,1.99177 5.38491,12.01552 0.924,2.332 1.77278,4.24 1.88618,4.24 0.1134,0 1.40219,-3.528 2.86398,-7.84 l 2.65781,-7.84 h 2.85088 c 1.98826,0 2.89576,0.12104 2.99921,0.4 0.0816,0.22 -2.20753,7.024 -5.08692,15.12 -4.1381,11.635148 -5.34995,14.719998 -5.78256,14.719998 -0.41577,0 -1.37739,-2.03816 -4.00093,-8.479998 -1.89948,-4.664 -3.5718,-8.48 -3.71626,-8.48 -0.14446,0 -1.84161,3.852 -3.77143,8.56 -2.53505,6.184508 -3.65052,8.558488 -4.01955,8.554528 -0.38389,-0.004 -1.81175,-3.69308 -5.74801,-14.850298 z m 108.97058,14.002438 c -0.11734,-0.11733 -0.21334,-5.513578 -0.21334,-11.991668 v -11.77833 l -4.88,-0.0883 -4.88,-0.0883 v -2.72 -2.72 l 12.88,-0.0836 12.88,-0.0836 v 2.88363 2.88363 h -4.96 -4.96 v 12 11.999998 h -2.82666 c -1.55467,0 -2.92267,-0.096 -3.04,-0.21333 z m 22.97799,-0.17413 c -0.087,-0.2269 -0.12065,-6.892538 -0.0748,-14.812538 l 0.0834,-14.4 h 8 8 l 1.44,0.85277 c 5.73074,3.39372 6.65864,11.0169 1.84274,15.13913 l -1.31825,1.12837 2.64924,5.89948 c 1.45709,3.244708 2.55458,6.052648 2.43887,6.239858 -0.12421,0.20098 -1.42743,0.34039 -3.18201,0.34039 h -2.97165 l -2.53915,-5.52 -2.53915,-5.519998 -2.94271,-0.0919 -2.94271,-0.0919 -0.0876,5.53191 -0.0876,5.531898 -2.80523,0.0925 c -2.06356,0.0681 -2.84706,-0.0165 -2.96344,-0.32 z m 14.84276,-17.063008 c 1.2992,-1.0932 1.80986,-2.68316 1.32937,-4.13905 -0.2014,-0.61024 -0.79961,-1.47424 -1.32937,-1.92 -0.91761,-0.77212 -1.15133,-0.81048 -4.93864,-0.81048 h -3.97545 v 3.84 3.84 h 3.97545 c 3.78731,0 4.02103,-0.0384 4.93864,-0.81047 z m 15.26143,17.155578 c -0.10291,-0.16651 2.92761,-5.454478 6.73449,-11.751038 3.80688,-6.29657 6.99165,-11.63088 7.07728,-11.85401 0.12161,-0.31692 -1.16424,-0.42478 -5.8758,-0.49288 l -6.03149,-0.0872 v -2.56 -2.56 l 10.8,-0.0842 c 9.74384,-0.076 10.8,-0.0339 10.8,0.43028 0,0.283 -3.16478,5.75417 -7.03285,12.15816 l -7.03286,11.643608 7.11286,0.0861 7.11285,0.0861 v 2.56 2.56 l -11.73869,0.0839 c -7.13116,0.051 -11.81213,-0.0349 -11.92579,-0.21881 z m 31.33281,-0.1004 c -0.0854,-0.22259 -0.11765,-6.884708 -0.0718,-14.804708 l 0.0834,-14.4 h 9.76 9.76 v 2.56 2.56 l -6.8,0.0864 -6.8,0.0864 v 3.18701 3.18701 l 6.48,0.0866 6.48,0.0866 v 2.4 2.4 l -6.48,0.0866 -6.48,0.0866 v 3.66702 3.667008 l 6.8,0.0864 6.8,0.0864 v 2.56 2.56 l -9.68823,0.0847 c -7.57807,0.0662 -9.72204,-0.003 -9.84344,-0.32 z m -2.54833,-38.147968 c -2.68277,-0.98881 -3.53608,-3.68486 -1.92,-6.06629 0.44,-0.64838 0.8,-1.24136 0.8,-1.31775 0,-0.0764 -2.772,-0.17799 -6.16,-0.22579 l -6.16,-0.0869 v -14.72 -14.72 h 9.76 9.76 v 2.56 2.56 l -6.8,0.0864 -6.8,0.0864 v 3.19364 3.19363 h 6.57347 6.57346 l -0.0935,2.48 -0.0935,2.48 -6.48,0.0866 -6.48,0.0866 v 3.66701 3.66701 l 6.8,0.0864 6.8,0.0864 0.0923,2.60249 0.0923,2.6025 -1.75831,0.99232 c -2.65764,1.49988 -3.16764,3.18295 -0.82237,2.71389 0.70248,-0.14049 0.97004,0.0385 1.69507,1.13413 1.0864,1.64165 1.07762,1.82619 -0.11627,2.44357 -1.42148,0.73508 -3.76228,0.88089 -5.2628,0.32784 z m -51.1875,-7.35813 c -1.04913,-0.44112 -2.48913,-1.21851 -3.2,-1.72753 -1.52326,-1.09074 -3.6996,-3.82022 -3.48726,-4.37358 0.0816,-0.21271 1.24194,-0.90364 2.57847,-1.53541 l 2.43006,-1.14867 0.88381,1.22007 c 1.04502,1.4426 3.77058,2.90729 5.40525,2.90473 3.16969,-0.005 5.45717,-1.59376 5.45717,-3.7903 0,-1.08449 -0.17886,-1.42876 -1.1644,-2.24112 -0.67688,-0.55794 -2.31813,-1.32426 -3.92,-1.83027 -6.01443,-1.89992 -8.80792,-3.67509 -10.17258,-6.46434 -1.00167,-2.04735 -0.901,-3.95021 0.3384,-6.39605 2.78087,-5.48778 11.31201,-7.29627 16.91412,-3.58559 1.35922,0.90031 3.44446,3.25444 3.44446,3.88862 0,0.1392 -1.09157,0.80232 -2.42571,1.4736 l -2.42571,1.22052 -1.1822,-1.1822 c -2.24727,-2.24727 -5.81713,-2.4761 -7.90633,-0.5068 -2.5034,2.35971 -1.37683,4.18681 3.56112,5.77548 5.9823,1.92468 9.15011,3.97985 10.42011,6.76023 1.3881,3.03893 0.37528,7.25185 -2.29234,9.53524 -2.09623,1.79429 -4.3797,2.54719 -8.14894,2.68685 -2.85107,0.10564 -3.40799,0.0311 -5.1075,-0.68348 z m -102.8925,-0.12231 c -4.51259,-1.50956 -7.6387,-4.1703 -9.60302,-8.17347 -2.34898,-4.78708 -2.34901,-9.37903 -9e-5,-14.16566 2.83345,-5.774 8.37178,-9.01158 14.84935,-8.68057 4.47878,0.22888 7.74675,1.68909 10.68567,4.77464 2.65341,2.7858 2.65024,2.61365 0.0784,4.26218 -1.24125,0.79562 -2.39638,1.44658 -2.56695,1.44658 -0.17058,0 -0.90473,-0.64505 -1.63145,-1.43345 -3.80985,-4.1332 -10.24083,-4.27625 -14.2012,-0.31588 -2.8691,2.8691 -3.7103,7.43194 -2.03845,11.05701 3.01576,6.53904 11.40842,7.92705 16.23965,2.68577 0.72672,-0.78839 1.46087,-1.43345 1.63145,-1.43345 0.17057,0 1.3268,0.65167 2.5694,1.44815 l 2.25926,1.44815 -0.70529,0.99048 c -1.72072,2.41654 -4.50891,4.59094 -7.37026,5.74781 -2.4435,0.98792 -7.73461,1.16524 -10.19643,0.34171 z m 126.22652,-0.4563 c -0.0844,-0.22 -0.11584,-6.88 -0.07,-14.8 l 0.0834,-14.4 2.96,-0.092 2.96,-0.092 v 14.892 14.89201 h -2.89004 c -2.01689,0 -2.93639,-0.12085 -3.04344,-0.4 z M 46.86852,46.489437 c -0.0853,-0.22238 -0.11751,-6.88433 -0.0716,-14.80433 l 0.0834,-14.4 2.96,-0.092 2.96,-0.092 v 12.16632 12.16631 l 7.76,0.0857 7.76,0.0857 v 2.56 2.56 l -10.64838,0.0843 c -8.34656,0.0661 -10.6819,-0.003 -10.80344,-0.32 z m 28.15834,-0.004 c -0.0844,-0.22 -0.11585,-6.88 -0.07,-14.8 l 0.0834,-14.4 2.96,-0.092 2.96,-0.092 v 14.892 14.89201 h -2.89004 c -2.01689,0 -2.93639,-0.12085 -3.04344,-0.4 z m 49.949,0.10511 c -0.10291,-0.16651 2.92761,-5.45448 6.73449,-11.75105 3.80688,-6.29656 6.99165,-11.63087 7.07727,-11.854 0.12162,-0.31692 -1.16424,-0.42478 -5.8758,-0.49288 l -6.03148,-0.0875 v -2.56 -2.56 l 10.8,-0.0842 c 9.74383,-0.076 10.8,-0.0339 10.8,0.43028 0,0.283 -3.16478,5.75417 -7.03285,12.15816 l -7.03286,11.64361 7.11286,0.0861 7.11285,0.0861 v 2.56 2.56 l -11.73869,0.0839 c -7.13116,0.051 -11.81213,-0.0349 -11.92579,-0.21881 z m 38.86448,-5.66007 v -5.97864 l -4.64,-8.41384 c -2.552,-4.62762 -4.64,-8.63863 -4.64,-8.91337 0,-0.41858 0.50622,-0.49952 3.12434,-0.49952 h 3.12434 l 2.64215,4.90772 c 1.45318,2.69924 2.81923,5.14666 3.03566,5.43872 0.33782,0.45586 0.80381,-0.22734 3.2928,-4.82771 l 2.89929,-5.35873 2.99202,-0.0927 c 1.64562,-0.051 3.11712,0.0324 3.27001,0.18529 0.15731,0.15731 -1.73734,3.93409 -4.36457,8.70026 l -4.64255,8.42227 -0.0867,6.11243 -0.0867,6.11243 -2.96,0.092 -2.96,0.092 z"
     id="path1-0"
     inkscape:label="path1" />
</svg>
