<?xml version="1.0" encoding="UTF-8" standalone="no"?>
<svg
   width="91.44mm"
   height="91.44mm"
   version="1.1"
   style="shape-rendering:geometricPrecision; text-rendering:geometricPrecision; image-rendering:optimizeQuality; fill-rule:evenodd; clip-rule:evenodd"
   viewBox="0 0 9144 9144"
   id="svg1"
   sodipodi:docname="home.svg"
   inkscape:version="1.3.1 (91b66b0783, 2023-11-16)"
   xmlns:inkscape="http://www.inkscape.org/namespaces/inkscape"
   xmlns:sodipodi="http://sodipodi.sourceforge.net/DTD/sodipodi-0.dtd"
   xmlns="http://www.w3.org/2000/svg"
   xmlns:svg="http://www.w3.org/2000/svg">
  <sodipodi:namedview
     id="namedview1"
     pagecolor="#ffffff"
     bordercolor="#000000"
     borderopacity="0.25"
     inkscape:showpageshadow="2"
     inkscape:pageopacity="0.0"
     inkscape:pagecheckerboard="0"
     inkscape:deskcolor="#d1d1d1"
     inkscape:document-units="mm"
     inkscape:zoom="3.4172453"
     inkscape:cx="172.8"
     inkscape:cy="172.65369"
     inkscape:window-width="1350"
     inkscape:window-height="1212"
     inkscape:window-x="1940"
     inkscape:window-y="1217"
     inkscape:window-maximized="0"
     inkscape:current-layer="svg1" />
  <defs
     id="defs1">
    <style
       type="text/css"
       id="style1">  .fil0 {fill:#F0F0F0} .fil1 {fill:#011627;fill-rule:nonzero}  </style>
  </defs>
  <path
     class="fil1"
     d="M6012 4718l0 1886c0,47 -38,85 -85,85l-2710 0c-46,0 -84,-38 -84,-85l0 -1886 -655 0c-46,0 -84,-38 -84,-84 0,-26 11,-48 28,-64l2028 -2089c33,-34 86,-34 119,-2l2156 2094c33,32 34,86 1,119 -16,17 -38,26 -60,26l-654 0zm-1871 508l859 0c47,0 85,38 85,85l0 7 2 1201 755 0 0 -1885c0,-47 38,-85 85,-85l531 0 -1946 -1890 -1834 1890 539 0c47,0 85,38 85,85l0 1885 755 0 0 -1208c0,-47 38,-84 84,-84l0 -1zm775 170l-690 0 -1 1123 694 0 -3 -1123z"
     id="path1"
     style="shape-rendering:geometricPrecision;text-rendering:geometricPrecision;image-rendering:optimizeQuality;fill-rule:evenodd;clip-rule:evenodd;fill:#560319;fill-opacity:1" />
</svg>
