<?xml version="1.0" encoding="UTF-8" standalone="no"?>
<!-- Created with Inkscape (http://www.inkscape.org/) -->

<svg
   width="106mm"
   height="86mm"
   viewBox="0 0 106 86"
   version="1.1"
   id="svg1"
   xml:space="preserve"
   inkscape:version="1.3.1 (91b66b0783, 2023-11-16)"
   sodipodi:docname="chomik.svg"
   xmlns:inkscape="http://www.inkscape.org/namespaces/inkscape"
   xmlns:sodipodi="http://sodipodi.sourceforge.net/DTD/sodipodi-0.dtd"
   xmlns="http://www.w3.org/2000/svg"
   xmlns:svg="http://www.w3.org/2000/svg"><sodipodi:namedview
     id="namedview1"
     pagecolor="#ffffff"
     bordercolor="#000000"
     borderopacity="0.25"
     inkscape:showpageshadow="2"
     inkscape:pageopacity="0.0"
     inkscape:pagecheckerboard="0"
     inkscape:deskcolor="#d1d1d1"
     inkscape:document-units="mm"
     inkscape:zoom="1.2800141"
     inkscape:cx="475.3854"
     inkscape:cy="341.01188"
     inkscape:window-width="3440"
     inkscape:window-height="1377"
     inkscape:window-x="-8"
     inkscape:window-y="1072"
     inkscape:window-maximized="1"
     inkscape:current-layer="layer1" /><defs
     id="defs1"><inkscape:path-effect
       effect="bspline"
       id="path-effect19"
       is_visible="true"
       lpeversion="1.3"
       weight="33.333333"
       steps="2"
       helper_size="0"
       apply_no_weight="true"
       apply_with_weight="true"
       only_selected="false"
       uniform="false" /><inkscape:path-effect
       effect="bspline"
       id="path-effect18"
       is_visible="true"
       lpeversion="1.3"
       weight="33.333333"
       steps="2"
       helper_size="0"
       apply_no_weight="true"
       apply_with_weight="true"
       only_selected="false"
       uniform="false" /><inkscape:path-effect
       effect="bspline"
       id="path-effect17"
       is_visible="true"
       lpeversion="1.3"
       weight="33.333333"
       steps="2"
       helper_size="0"
       apply_no_weight="true"
       apply_with_weight="true"
       only_selected="false"
       uniform="false" /><inkscape:path-effect
       effect="bspline"
       id="path-effect16"
       is_visible="true"
       lpeversion="1.3"
       weight="33.333333"
       steps="2"
       helper_size="0"
       apply_no_weight="true"
       apply_with_weight="true"
       only_selected="false"
       uniform="false" /><inkscape:path-effect
       effect="bspline"
       id="path-effect15"
       is_visible="true"
       lpeversion="1.3"
       weight="33.333333"
       steps="2"
       helper_size="0"
       apply_no_weight="true"
       apply_with_weight="true"
       only_selected="false"
       uniform="false" /><inkscape:path-effect
       effect="bspline"
       id="path-effect14"
       is_visible="true"
       lpeversion="1.3"
       weight="33.333333"
       steps="2"
       helper_size="0"
       apply_no_weight="true"
       apply_with_weight="true"
       only_selected="false"
       uniform="false" /><inkscape:path-effect
       effect="bspline"
       id="path-effect13"
       is_visible="true"
       lpeversion="1.3"
       weight="33.333333"
       steps="2"
       helper_size="0"
       apply_no_weight="true"
       apply_with_weight="true"
       only_selected="false"
       uniform="false" /><inkscape:path-effect
       effect="bspline"
       id="path-effect12"
       is_visible="true"
       lpeversion="1.3"
       weight="33.333333"
       steps="2"
       helper_size="0"
       apply_no_weight="true"
       apply_with_weight="true"
       only_selected="false"
       uniform="false" /><inkscape:path-effect
       effect="bspline"
       id="path-effect11"
       is_visible="true"
       lpeversion="1.3"
       weight="33.333333"
       steps="2"
       helper_size="0"
       apply_no_weight="true"
       apply_with_weight="true"
       only_selected="false"
       uniform="false" /><inkscape:path-effect
       effect="bspline"
       id="path-effect10"
       is_visible="true"
       lpeversion="1.3"
       weight="33.333333"
       steps="2"
       helper_size="0"
       apply_no_weight="true"
       apply_with_weight="true"
       only_selected="false"
       uniform="false" /><inkscape:path-effect
       effect="bspline"
       id="path-effect9"
       is_visible="true"
       lpeversion="1.3"
       weight="33.333333"
       steps="2"
       helper_size="0"
       apply_no_weight="true"
       apply_with_weight="true"
       only_selected="false"
       uniform="false" /><inkscape:path-effect
       effect="bspline"
       id="path-effect8"
       is_visible="true"
       lpeversion="1.3"
       weight="33.333333"
       steps="2"
       helper_size="0"
       apply_no_weight="true"
       apply_with_weight="true"
       only_selected="false"
       uniform="false" /><inkscape:path-effect
       effect="bspline"
       id="path-effect7"
       is_visible="true"
       lpeversion="1.3"
       weight="33.333333"
       steps="2"
       helper_size="0"
       apply_no_weight="true"
       apply_with_weight="true"
       only_selected="false"
       uniform="false" /><inkscape:path-effect
       effect="bspline"
       id="path-effect6"
       is_visible="true"
       lpeversion="1.3"
       weight="33.333333"
       steps="2"
       helper_size="0"
       apply_no_weight="true"
       apply_with_weight="true"
       only_selected="false"
       uniform="false" /><inkscape:path-effect
       effect="bspline"
       id="path-effect5"
       is_visible="true"
       lpeversion="1.3"
       weight="33.333333"
       steps="2"
       helper_size="0"
       apply_no_weight="true"
       apply_with_weight="true"
       only_selected="false"
       uniform="false" /><inkscape:path-effect
       effect="bspline"
       id="path-effect4"
       is_visible="true"
       lpeversion="1.3"
       weight="33.333333"
       steps="2"
       helper_size="0"
       apply_no_weight="true"
       apply_with_weight="true"
       only_selected="false"
       uniform="false" /><inkscape:path-effect
       effect="bspline"
       id="path-effect3"
       is_visible="true"
       lpeversion="1.3"
       weight="33.333333"
       steps="2"
       helper_size="0"
       apply_no_weight="true"
       apply_with_weight="true"
       only_selected="false"
       uniform="false" /><inkscape:path-effect
       effect="bspline"
       id="path-effect2"
       is_visible="true"
       lpeversion="1.3"
       weight="33.333333"
       steps="2"
       helper_size="0"
       apply_no_weight="true"
       apply_with_weight="true"
       only_selected="false"
       uniform="false" /><inkscape:path-effect
       effect="bspline"
       id="path-effect1"
       is_visible="true"
       lpeversion="1.3"
       weight="33.333333"
       steps="2"
       helper_size="0"
       apply_no_weight="true"
       apply_with_weight="true"
       only_selected="false"
       uniform="false" /></defs><g
     inkscape:label="Layer 1"
     inkscape:groupmode="layer"
     id="layer1"><path
       id="path1"
       style="opacity:1;fill:#560319;stroke-width:0.264583"
       d="m 88.401095,0.62891113 c -0.97324,-0.05168 -1.93795,0.0515 -2.81636,0.249597 -0.8785,0.19809397 -1.67105,0.49093197 -2.48926,1.05936697 -0.81821,0.568435 -1.66191,1.412671 -2.43706,2.334224 -0.77514,0.921554 -1.48139,1.920654 -2.09289,2.842204 -0.61151,0.921551 -1.12862,1.765786 -1.59371,2.334225 -0.465,0.5684299 -0.8785,0.8611059 -1.26607,0.9989059 -0.38757,0.1378 -0.74929,0.120409 -2.09289,-0.112138 -1.3436,-0.232547 -3.66895,-0.6804089 -5.26221,-0.8526619 -1.59335,-0.172252 -2.45447,-0.0689 -3.29851,-0.02584 -0.84405,0.04306 -1.67088,0.02584 -2.48047,-0.05168 -0.80959,-0.07751 -1.60197,-0.215147 -2.50631,-0.35295 -0.90433,-0.137794 -1.92046,-0.275779 -3.01428,-0.473873 -1.09382,-0.198085 -2.2655,-0.456476 -3.37654,-0.671793 -1.11104,-0.215318 -2.1618,-0.387402 -3.90157,-0.456303 -1.739779,-0.0689 -4.168253,-0.03462 -6.467824,0.04289 -2.29958,0.07751 -4.47021,0.1981 -6.959265,0.568441 -2.489064,0.370349 -5.296515,0.990637 -7.656381,1.739946 -2.359857,0.7493009 -4.271938,1.6278169 -6.278686,2.6871749 -2.006748,1.059358 -4.108127,2.299439 -6.037358,3.763595 -1.929231,1.464148 -3.686444,3.152452 -5.305619,4.969722 -1.6191752,1.81727 -3.1003102,3.763636 -4.2617552,5.46685 -1.161454,1.703214 -2.002859,3.163323 -2.423625,3.893302 -0.420766,0.729987 -0.420914,0.729661 -1.029911,2.654102 -0.609006,1.924441 -1.827175,5.773457 -2.38745089,9.71982 -0.560285,3.946364 -0.462562,7.990043 -0.09715,11.010697 0.36540199,3.020663 0.99850289,5.018431 1.65622889,6.55308 0.657734,1.53471 1.339746,2.60635 1.979208,3.41633 0.639454,0.80999 1.23626,1.35827 1.641243,1.7663 0.404992,0.40804 0.618409,0.67578 0.779798,0.92243 0.161388,0.24665 0.271118,0.47199 0.289388,0.7369 0.01827,0.26492 -0.05505,0.56959 -0.268201,1.0294 -0.213155,0.4598 -0.566404,1.07476 -0.992704,1.80557 -0.426308,0.73082 -0.925723,1.5774 -1.361157,2.35076 -0.435443,0.77345 -0.806671,1.47393 -1.00459,2.13166 -0.197928,0.65773 -0.222317,1.27274 -0.143144,1.80867 0.07917,0.53593 0.26159,0.99272 0.550871,1.33377 0.289273,0.34105 0.685,0.5667 1.239201,0.69763 0.554193,0.13094 1.2669,0.16733 1.878955,-0.0367 0.612047,-0.20402 1.123581,-0.64854 1.839164,-1.47071 0.715583,-0.82217 1.6350202,-2.02186 2.4267252,-2.97191 0.791705,-0.95005 1.455933,-1.65081 2.195215,-2.1053 0.462821,-0.28452 0.953499,-0.46272 1.432987,-0.56585 -0.808728,-0.96978 -1.80798,-1.75408 -2.787426,-2.54197 -0.876973,-0.70645 -1.607914,-1.31551 -1.169438,-1.10846 0.438476,0.20706 2.046461,1.23009 3.325378,2.03399 1.222674,0.97687 2.557346,1.57391 3.926893,2.25826 1.119643,0.56844 2.738861,1.51601 4.314982,2.25671 1.576112,0.74069 3.109386,1.27451 4.246252,1.61902 1.136867,0.34451 1.877581,0.49971 2.377116,0.73225 0.499527,0.23255 0.757576,0.5426 1.067635,1.34359 0.310059,0.80099 0.671973,2.09256 1.326534,3.13469 0.654561,1.04214 1.602152,1.83452 2.618445,2.48047 1.016292,0.64595 2.101353,1.1455 3.505212,1.44694 1.403868,0.30145 3.1261,0.40498 4.891691,0.44804 1.7656,0.0431 3.574472,0.0258 5.30562,-0.25839 1.731153,-0.28414 3.384633,-0.83578 4.693773,-1.36115 1.30905,-0.52538 2.27359,-1.02475 2.91093,-1.56735 0.63734,-0.5426 0.9474,-1.1281 1.13688,-1.72237 0.16991,-0.5329 0.30643,-0.70748 -0.14779,-1.37356 -0.45422,-0.66608 -1.34201,-0.47767 -2.84479,-0.60668 -2.41168,-0.20707 -6.163117,-0.35282 -9.658842,-0.57206 -3.495726,-0.21925 -6.735306,-0.51161 -8.708513,-0.7674 -1.973206,-0.25578 -2.683163,-0.56309 -2.205033,-0.53588 2.335348,0.13288 2.892002,0.12496 4.33617,0.21911 2.849184,0.18575 5.690021,0.48579 8.538496,0.68212 3.497282,0.24105 6.993532,0.60076 10.499102,0.60875 0.79126,0.002 1.58184,-0.0614 2.3704,-0.1266 2.38682,-0.19744 4.76073,-0.52832 7.14013,-0.80099 1.66841,-0.19119 3.35058,-0.29071 5.00383,-0.58549 3.08501,-0.55007 6.10622,-1.28075 9.13949,-2.20194 2.85018,-0.87698 6.18743,-2.04607 8.63565,-3.10575 2.44821,-1.05968 4.00739,-2.00994 4.39715,-2.19263 0.38975,-0.1827 -0.38978,0.40208 -1.72961,1.16944 -1.33983,0.76735 -3.23993,1.71733 -5.21312,2.63084 -1.9732,0.91352 -4.01921,1.79056 -6.07767,2.49701 -1.53246,0.52593 -2.99337,1.04742 -4.35839,1.45469 0.8141,0.39528 1.42887,0.62028 2.18282,1.00562 1.16263,0.59428 2.31665,1.11105 3.73775,1.42111 1.42111,0.31005 3.10886,0.41375 4.84002,0.30179 1.73107,-0.11197 3.50556,-0.4396 5.2281,-0.99943 1.72254,-0.55983 3.3936,-1.35185 4.76302,-2.35954 1.36942,-1.00769 2.43689,-2.23053 2.99671,-3.27267 0.559815,-1.04214 0.611505,-1.90342 0.516765,-2.58382 -0.0947,-0.68041 -0.335545,-1.17995 -0.680055,-1.62781 -0.34451,-0.44786 -0.79238,-0.84439 -1.26608,-1.15445 -0.47369,-0.31006 -0.97307,-0.53365 -1.17977,-0.75758 -0.2067,-0.22392 -0.12058,-0.44803 0.15503,-0.78393 0.27561,-0.3359 0.74018,-0.78393 1.23972,-1.45572 0.49954,-0.6718 1.03378,-1.56717 1.714095,-2.74712 0.68042,-1.17995 1.50707,-2.644122 2.16164,-4.056599 0.65457,-1.412469 1.13723,-2.773139 1.56786,-4.254521 0.43064,-1.481373 0.80926,-3.083554 1.0418,-4.71134 0.23254,-1.627786 0.31902,-3.281645 0.25011,-5.073075 -0.0689,-1.791431 -0.293,-3.720544 -0.47387,-5.313888 -0.18087,-1.593335 -0.31867,-2.850653 -0.67179,-4.177006 -0.35313,-1.326345 -0.92157,-2.721808 -1.5503,-4.065385 -0.62873,-1.343568 -1.31757,-2.634995 -1.90324,-3.51348 -0.585665,-0.878486 -1.068155,-1.343597 -1.119835,-1.808675 -0.0517,-0.465087 0.32711,-0.930527 0.766355,-1.671216 0.43926,-0.740697 0.93915,-1.756662 1.36117,-2.927987 0.42202,-1.171325 0.7662,-2.49805 0.83509,-3.78995 0.0689,-1.291891 -0.13746,-2.549035 -0.55087,-3.884 -0.41341,-1.334965 -1.03353,-2.7473049 -1.75701,-3.9961399 -0.723465,-1.248827 -1.550285,-2.334235 -2.480465,-3.316076 -0.93009,-0.981841 -1.96353,-1.860355 -3.01428,-2.557984 -1.05076,-0.697621 -2.11908,-1.214398 -3.144,-1.576131 -1.02483,-0.36173297 -2.00642,-0.56844197 -2.97966,-0.62011697 z m 0.94826,2.05052097 c 0.98261,-0.02058 1.9742,0.178405 2.91817,0.581876 1.51035,0.645557 2.89884,1.814421 4.01939,2.922819 1.12058,1.108399 1.97283,2.156151 2.64274,3.301091 0.66991,1.1449409 1.157125,2.3873729 1.473805,3.6297529 0.31669,1.242383 0.46325,2.484819 0.3049,3.715019 -0.15835,1.230201 -0.62141,2.447908 -1.059885,3.665926 -0.43849,1.21802 -0.85261,2.436286 -1.13275,2.960026 -0.28014,0.523743 -0.42631,0.353214 -1.21801,-0.341064 -0.79173,-0.694278 -2.22898,-1.912457 -3.65404,-2.984314 -1.42509,-1.071857 -2.83788,-1.997636 -4.29948,-2.83807 -1.46163,-0.840433 -2.97207,-1.595436 -4.39715,-2.228804 -1.42509,-0.63337 -2.76461,-1.144882 -3.83646,-1.583366 -1.07185,-0.438486 -1.8761,-0.804112 -2.22932,-1.059884 -0.35323,-0.255772 -0.2556,-0.402042 0.54829,-1.53479 0.80386,-1.1327479 2.31436,-3.2519409 3.77599,-4.8353649 1.46163,-1.583421 2.87412,-2.631026 4.39663,-3.093868 0.57095,-0.173563 1.15762,-0.264639 1.74718,-0.276985 z M 24.567266,17.533306 c 0.566372,0.0061 1.09302,0.08214 1.549777,0.222209 0.913509,0.280147 1.546926,0.816075 1.985408,1.388546 0.438486,0.572466 0.682059,1.181508 0.706417,1.814876 0.02436,0.633372 -0.170476,1.290986 -0.450618,1.863452 -0.280147,0.57247 -0.645454,1.059743 -0.815971,1.10846 -0.170522,0.04872 -0.146022,-0.341004 -0.133842,-0.535885 0.01218,-0.194881 0.01189,-0.19482 0.01189,-0.19482 0.219242,-0.925684 0.438801,-1.851761 0.243913,-2.655652 -0.194888,-0.80389 -0.804342,-1.485795 -1.498617,-1.88774 -0.69427,-0.401945 -1.473653,-0.523549 -2.569868,-0.328662 -1.09622,0.194887 -2.508812,0.706532 -3.58066,1.449524 -1.071853,0.742992 -1.80289,1.71735 -2.618962,2.886645 -0.816072,1.1693 -1.717262,2.533489 -2.655135,4.165638 -0.937874,1.632144 -1.912366,3.532119 -2.667538,5.432226 -0.755167,1.900107 -1.29097,3.800076 -1.522387,5.261695 -0.231421,1.461614 -0.158264,2.484952 0.146244,3.410644 0.304508,0.925692 0.840337,1.753765 0.815971,1.88774 -0.02437,0.133975 -0.609072,-0.42638 -1.023193,-1.364258 -0.414126,-0.937877 -0.6576182,-2.253322 -0.5601732,-3.65404 0.09745,-1.400723 0.5356242,-2.886891 1.1446332,-4.628658 0.609009,-1.741772 1.38882,-3.739117 2.338875,-5.541781 0.950056,-1.802664 2.070657,-3.410427 3.03289,-4.786788 0.962233,-1.376356 1.766065,-2.52105 2.801379,-3.38584 1.035319,-0.864789 2.301886,-1.449468 3.532085,-1.72961 0.615097,-0.140071 1.22112,-0.204011 1.787487,-0.197921 z m 0.209807,2.816366 c 0.572468,0.04872 0.987026,0.536285 1.157552,1.096574 0.170525,0.560286 0.09726,1.193616 -0.463021,1.839164 -0.560282,0.645548 -1.607938,1.303129 -2.728516,2.484603 -1.120577,1.181474 -2.313863,2.886747 -3.860746,5.809981 -1.54688,2.923234 -3.44722,7.064506 -4.263306,8.331275 -0.816082,1.266766 -0.54789,-0.341451 -0.07286,-1.949235 0.475023,-1.607788 1.156724,-3.215511 2.131136,-5.407939 0.974411,-2.192428 2.241553,-4.969536 2.996716,-6.601664 0.755163,-1.632131 0.998416,-2.119215 1.424719,-2.740401 0.426306,-0.62119 1.03541,-1.376246 1.705323,-1.948719 0.669909,-0.572469 1.400534,-0.962355 1.973006,-0.913639 z m 57.511732,3.19257 c 0.37625,0.0011 0.76428,0.01984 1.16014,0.05943 1.58343,0.15834 3.28855,0.645566 4.89634,1.473812 1.60779,0.828245 3.11799,1.997518 4.29948,3.312976 1.18149,1.31545 2.03409,2.777426 2.69183,4.580082 0.65766,1.802656 1.12094,3.945961 1.2671,5.614644 0.14617,1.668691 -0.0244,2.862418 -0.59686,3.885551 -0.57247,1.023134 -1.54718,1.875817 -2.59468,2.582272 -1.04742,0.706447 -2.16804,1.266883 -3.39824,1.33997 -1.2302,0.07308 -2.56965,-0.340884 -3.94601,-0.925525 -1.37636,-0.584649 -2.78971,-1.340174 -4.01991,-2.229322 -1.2302,-0.889147 -2.27735,-1.91231 -3.15433,-2.947623 -0.87698,-1.035314 -1.58354,-2.082573 -2.13165,-3.38584 -0.54811,-1.303275 -0.93771,-2.862519 -1.09606,-4.37286 -0.15834,-1.510334 -0.0853,-2.971685 0.17053,-4.177523 0.25579,-1.205831 0.69427,-2.156134 1.2423,-2.87476 0.54811,-0.718618 1.20582,-1.205921 2.2655,-1.53479 0.79476,-0.246644 1.81577,-0.403918 2.94452,-0.400492 z m -37.071119,5.494755 c 0.802281,-0.01249 1.701495,0.07342 2.653068,0.30179 1.522521,0.365402 3.179131,1.09611 4.567681,1.948719 1.38855,0.852608 2.50894,1.826993 3.44682,3.22771 0.93787,1.40071 1.6933,3.227888 1.99781,4.99401 0.30451,1.766122 0.15811,3.47133 -0.18294,4.872054 -0.34104,1.400724 -0.87692,2.496859 -1.7539,3.763595 -0.87691,1.26673 -2.09474,2.704 -3.4711,3.824572 -1.37637,1.120579 -2.91139,1.924227 -4.494817,2.338359 -1.583425,0.414132 -3.215189,0.438783 -4.908228,0.158647 -1.693039,-0.280142 -3.447347,-0.864973 -5.006413,-1.766301 -1.55906,-0.901328 -2.923237,-2.11918 -3.824572,-3.446818 -0.901342,-1.327638 -1.339538,-2.764916 -1.570964,-4.165637 -0.231426,-1.400721 -0.255855,-2.764706 0.02429,-4.238501 0.280143,-1.473801 0.864746,-3.057477 1.668632,-4.433838 0.803886,-1.376361 1.826839,-2.54564 3.020487,-3.568774 1.193655,-1.023135 2.558204,-1.900108 3.617867,-2.521294 1.059664,-0.621179 1.814794,-0.986732 2.886646,-1.169437 0.401947,-0.06852 0.848262,-0.111362 1.329635,-0.118856 z m 28.815809,13.699939 c 2.49695,0.02436 4.83578,0.511592 7.0404,1.559078 2.20462,1.047486 4.27512,2.654924 5.85856,4.116545 1.58343,1.461612 2.67975,2.777518 3.34966,4.811592 0.66992,2.034075 0.91348,4.786614 0.79169,7.015594 -0.1218,2.22899 -0.60887,3.9342 -1.35186,5.38365 -0.74299,1.44945 -1.74189,2.64323 -3.43493,3.69073 -1.69304,1.0475 -4.0803,1.94845 -6.88175,2.55747 -2.80145,0.60901 -6.01698,0.92567 -8.86716,1.04748 -2.85018,0.1218 -5.33473,0.0487 -7.35666,-0.17053 -2.02192,-0.21925 -3.58095,-0.58443 -4.95732,-1.29088 -1.37637,-0.70645 -2.57029,-1.75389 -3.64215,-2.97191 -1.07187,-1.21803 -2.02206,-2.60687 -2.64325,-4.23902 -0.6212,-1.63215 -0.91326,-3.50767 -0.69402,-5.371249 0.21924,-1.863561 0.95016,-3.714973 1.79059,-5.213119 0.84043,-1.498137 1.79044,-2.64317 2.91093,-3.800285 1.12058,-1.157106 2.41147,-2.326462 4.15324,-3.373954 1.74177,-1.047492 3.93441,-1.973048 6.35827,-2.655135 2.42386,-0.682087 5.0789,-1.120413 7.57576,-1.096057 z"
       sodipodi:nodetypes="ssssscssssssssssssssssssssssssssscsssssssscssssssssssssccsszcsssaaaaaassssssccssssssssssscsssssssssssssscscsssssssssssssssssssssssssscsssssssssssssssssssssssssssssssssscsscssssssscsssssssscssssssssssssssssssssssssssscsssscsss" /><path
       id="path7"
       style="opacity:1;fill:#560319;stroke-width:0.264583"
       d="m 45.84297,33.869777 c -1.382455,-0.02436 -2.68601,0.243746 -3.642155,0.603064 -0.956144,0.359318 -1.56497,0.809861 -1.973006,1.126546 -0.408036,0.316685 -0.615198,0.499193 -1.053682,1.065568 -0.438484,0.566375 -1.108224,1.516649 -1.491899,2.618962 -0.383675,1.102313 -0.481254,2.356551 -0.432532,3.665926 0.04872,1.309375 0.243531,2.673616 0.761194,3.800285 0.517663,1.126668 1.358216,2.016157 2.302185,2.710429 0.94397,0.694271 1.991236,1.193194 3.331063,1.58905 1.339828,0.395856 2.972358,0.688253 4.385262,0.542086 1.412905,-0.146168 2.606065,-0.730782 3.684015,-1.528589 1.07795,-0.797807 2.04034,-1.808544 2.81378,-2.849955 0.77344,-1.041412 1.35833,-2.113407 1.57148,-3.29489 0.21315,-1.181483 0.05446,-2.472521 -0.35967,-3.623551 -0.41413,-1.15103 -1.08385,-2.161675 -2.05827,-3.099553 -0.97442,-0.937877 -2.25328,-1.802915 -3.62355,-2.393652 -1.370276,-0.590737 -2.831759,-0.907368 -4.214215,-0.931726 z m -4.868436,3.202388 c 0.140391,0.0047 0.254763,0.06382 0.306441,0.212391 0.137808,0.396179 -0.171911,1.42937 -0.499194,2.359546 -0.327284,0.930175 -0.672139,1.756998 -0.999423,2.428792 -0.327283,0.671794 -0.637343,1.188554 -0.878499,1.240234 -0.241156,0.05168 -0.413066,-0.361567 -0.447518,-0.998905 -0.03445,-0.637338 0.0689,-1.498617 0.310059,-2.273763 0.241154,-0.775146 0.619947,-1.464342 0.843876,-1.894975 0.223929,-0.430633 0.292837,-0.602549 0.620117,-0.809253 0.20455,-0.12919 0.510155,-0.271973 0.744141,-0.264067 z" /><path
       id="path8"
       style="opacity:1;fill:#560319;stroke-width:0.264583"
       d="m 84.136755,28.152297 c -0.52405,0.0026 -1.02129,0.04164 -1.45521,0.114721 -1.15711,0.194886 -1.86355,0.633207 -2.35076,1.096057 -0.4872,0.462851 -0.75501,0.949878 -1.01079,1.973007 -0.25578,1.023128 -0.49956,2.582422 -0.46302,4.007507 0.03654,1.425085 0.35344,2.715962 1.23042,4.067969 0.87698,1.352006 2.31399,2.764883 3.64163,3.568774 1.32765,0.803891 2.5458,0.998831 3.776,0.937927 1.23021,-0.0609 2.47226,-0.377264 3.4954,-0.888834 1.02313,-0.511571 1.8273,-1.218228 2.16834,-2.533696 0.34104,-1.315468 0.21916,-3.239768 -0.31678,-5.091162 -0.53593,-1.851394 -1.48597,-3.629822 -2.52129,-4.823478 -1.03532,-1.193657 -2.15601,-1.80279 -3.5202,-2.131653 -0.85262,-0.205539 -1.80032,-0.301542 -2.67374,-0.297139 z m -2.58899,2.335774 c 0.10587,-6.3e-5 0.19319,0.03101 0.24702,0.0956 0.17225,0.206701 5.1e-4,0.757923 -0.20619,1.44694 -0.20671,0.689016 -0.44821,1.515844 -0.58601,2.325439 -0.13781,0.809596 -0.17209,1.601964 -0.37879,1.808675 -0.20671,0.206712 -0.58567,-0.172432 -0.72347,-0.861446 -0.13781,-0.689014 -0.03463,-1.687751 0.1204,-2.514575 0.15503,-0.826824 0.36175,-1.481741 0.72347,-1.877922 0.24869,-0.272374 0.57066,-0.422574 0.80357,-0.422713 z" /><path
       id="path11"
       style="opacity:1;fill:#560319;stroke-width:0.264583"
       d="m 77.025045,53.669602 c -0.46324,-0.0086 -0.94374,0.01409 -1.43247,0.07803 -1.30328,0.17052 -2.66724,0.633443 -3.9827,1.278992 -1.31547,0.64555 -2.58209,1.473637 -3.252,2.228805 -0.66991,0.755167 -0.74302,1.437388 -0.5116,2.302185 0.23143,0.8648 0.76707,1.91223 1.4857,2.88665 0.71863,0.97441 1.61997,1.87566 2.77709,2.54558 1.15712,0.66991 2.57015,1.10838 3.776,1.21801 1.20584,0.10963 2.20441,-0.10928 3.10575,-0.54777 0.90134,-0.43849 1.70552,-1.09626 2.59468,-2.07068 0.88915,-0.97441 1.86362,-2.26569 2.41174,-3.24011 0.54811,-0.974417 0.66957,-1.632264 0.63303,-2.216916 -0.03654,-0.584652 -0.23131,-1.09601 -0.7307,-1.631942 -0.49939,-0.535932 -1.30347,-1.096006 -2.10737,-1.546676 -0.80389,-0.450669 -1.60771,-0.791768 -2.63084,-1.023193 -0.63947,-0.144641 -1.36423,-0.246574 -2.13631,-0.260965 z m 1.08624,2.196765 c 0.54016,-0.0081 1.24967,0.164721 1.94407,0.503845 0.74069,0.361733 1.46381,0.91295 1.42937,1.240235 -0.03445,0.327284 -0.82631,0.430464 -1.65313,0.482141 -0.82682,0.05168 -1.68827,0.0515 -2.20503,-0.241329 -0.51677,-0.292829 -0.68919,-0.878497 -0.60307,-1.291911 0.08613,-0.413414 0.43064,-0.654395 0.98185,-0.688847 0.03445,-0.0022 0.06993,-0.0036 0.10594,-0.0041 z" /></g></svg>
