<?xml version="1.0" encoding="UTF-8" standalone="no"?>
<!-- Uploaded to: SVG Repo, www.svgrepo.com, Generator: SVG Repo Mixer Tools -->

<svg
   fill="#000000"
   height="800px"
   width="800px"
   version="1.1"
   id="Capa_1"
   viewBox="0 0 297 297"
   xml:space="preserve"
   sodipodi:docname="ham-svgrepo-com.svg"
   inkscape:version="1.3.2 (091e20e, 2023-11-25, custom)"
   xmlns:inkscape="http://www.inkscape.org/namespaces/inkscape"
   xmlns:sodipodi="http://sodipodi.sourceforge.net/DTD/sodipodi-0.dtd"
   xmlns="http://www.w3.org/2000/svg"
   xmlns:svg="http://www.w3.org/2000/svg"><defs
   id="defs2" /><sodipodi:namedview
   id="namedview2"
   pagecolor="#ffffff"
   bordercolor="#000000"
   borderopacity="0.25"
   inkscape:showpageshadow="2"
   inkscape:pageopacity="0.0"
   inkscape:pagecheckerboard="0"
   inkscape:deskcolor="#d1d1d1"
   inkscape:zoom="1.46625"
   inkscape:cx="400"
   inkscape:cy="399.65899"
   inkscape:window-width="1718"
   inkscape:window-height="1360"
   inkscape:window-x="-7"
   inkscape:window-y="1080"
   inkscape:window-maximized="0"
   inkscape:current-layer="Capa_1" />
<g
   id="g2">
	<path
   d="M291.06,104.872c-7.6-18.688-21.867-39.06-40.171-57.363c-28.46-28.46-60.609-46.141-83.9-46.141   c-9.049,0-16.722,2.74-22.27,7.922c-6.41,4.834-60.708,47.871-67.199,122.547c-4.157,47.809-31.03,56.643-32.993,57.225   c-3.599,0.822-6.338,3.5-7.372,7.05c-1.038,3.569,0.087,7.388,2.715,10.017l5.501,5.501l-6.37,6.37   c-3.531-1.571-7.387-2.43-11.296-2.46c-0.075-0.001-0.149-0.001-0.224-0.001c-7.3,0-14.129,2.773-19.246,7.819   c-10.86,10.697-10.996,28.242-0.307,39.106c4.518,4.597,10.362,7.416,16.686,8.098c0.57,6.123,3.171,12.094,7.809,16.809   c5.183,5.27,12.105,8.201,19.491,8.258c0.073,0.002,0.145,0.002,0.216,0.002c7.304-0.002,14.183-2.821,19.387-7.954   c8.312-8.192,10.339-20.4,6.031-30.546l6.662-6.661l8.968,8.968c1.937,1.936,4.538,2.983,7.203,2.983   c0.903,0,1.816-0.121,2.711-0.367c3.534-0.977,6.271-3.776,7.165-7.333c0.073-0.287,7.79-28.771,56.48-33.858   c75.418-7.878,118.652-62.325,122.476-67.329C298.9,143.04,299.586,125.834,291.06,104.872z M236.484,61.914   c16.427,16.425,29.107,34.407,35.707,50.633c5.221,12.837,5.944,23.331,1.887,27.388c-1.712,1.713-4.581,2.582-8.527,2.582   c-14.597,0-41.746-12.423-69.496-40.174c-16.426-16.425-29.105-34.407-35.705-50.635c-5.222-12.836-5.944-23.331-1.886-27.389   c1.712-1.712,4.579-2.58,8.525-2.58C181.585,21.739,208.732,34.161,236.484,61.914z M57.299,262.859   c2.816,2.863,2.78,7.487-0.083,10.31c-1.381,1.36-3.191,2.105-5.146,2.089c-1.94-0.015-3.76-0.787-5.123-2.174   c-2.82-2.865-2.785-7.488,0.076-10.305c2.023-1.992,3.039-4.623,3.04-7.255c0.001-2.581-0.973-5.164-2.927-7.149   c-3.946-4.01-10.394-4.061-14.403-0.114c-1.372,1.35-3.181,2.091-5.101,2.091c-0.021,0-0.04,0-0.059,0   c-1.94-0.015-3.758-0.786-5.122-2.174c-2.819-2.865-2.784-7.49,0.083-10.314c1.718-1.693,3.819-1.956,4.955-1.956   c0.021,0,0.039,0,0.057,0c2.08,0.016,4.091,0.857,5.518,2.309c1.905,1.936,4.504,3.032,7.221,3.044c0.014,0,0.027,0,0.042,0   c2.701,0,5.292-1.071,7.203-2.982l12.246-12.245l10.031,10.031l-12.45,12.447C53.401,252.468,53.376,258.873,57.299,262.859z    M164.62,200.6c-39.127,4.088-58.112,21.538-66.965,34.504l-33.5-33.5c12.914-8.946,30.197-28.192,33.66-68.003   c3.492-40.183,23.315-70.452,39.129-88.628c0.99,4.563,2.487,9.374,4.535,14.41c7.601,18.688,21.867,39.059,40.171,57.363   c23.666,23.666,49.879,39.867,71.434,44.656C234.867,176.956,204.719,196.412,164.62,200.6z"
   id="path1"
   style="fill:#560319;fill-opacity:1" />
	<path
   d="M222.837,75.558c11.325,11.325,17.566,23.446,13.94,27.072s-15.747-2.615-27.072-13.94s-17.566-23.446-13.94-27.072   C199.391,57.992,211.511,64.233,222.837,75.558z"
   id="path2"
   style="fill:#560319;fill-opacity:1" />
</g>
</svg>
