<?xml version="1.0" encoding="UTF-8" standalone="no"?>
<!-- Created with Inkscape (http://www.inkscape.org/) -->

<svg
   version="1.1"
   id="svg1"
   width="226.54604"
   height="111.77648"
   viewBox="0 0 226.54604 111.77648"
   sodipodi:docname="strona tytulowa.logo.svg"
   inkscape:version="1.3.2 (091e20e, 2023-11-25, custom)"
   xmlns:inkscape="http://www.inkscape.org/namespaces/inkscape"
   xmlns:sodipodi="http://sodipodi.sourceforge.net/DTD/sodipodi-0.dtd"
   xmlns="http://www.w3.org/2000/svg"
   xmlns:svg="http://www.w3.org/2000/svg">
  <sodipodi:namedview
     id="namedview1"
     pagecolor="#ffffff"
     bordercolor="#000000"
     borderopacity="0.25"
     inkscape:showpageshadow="2"
     inkscape:pageopacity="0.0"
     inkscape:pagecheckerboard="0"
     inkscape:deskcolor="#d1d1d1"
     inkscape:zoom="1.6970486"
     inkscape:cx="-5.0086957"
     inkscape:cy="-57.158057"
     inkscape:window-width="1718"
     inkscape:window-height="1360"
     inkscape:window-x="0"
     inkscape:window-y="1080"
     inkscape:window-maximized="0"
     inkscape:current-layer="svg1" />
  <defs
     id="defs1" />
  <path
     style="fill:#823529;fill-opacity:1"
     d="m 78.466031,111.75922 c -80.9203103,-0.0831 -79.27858034,-0.0576 -78.19563034,-1.21536 0.1564,-0.1672 4.07169004,-7 8.70064004,-15.184 10.4627403,-18.49814 19.5451703,-34.51923 39.8194203,-70.24 3.49627,-6.16 8.11137,-14.296 10.25579,-18.0799999 l 3.89893,-6.88000001 4.36043,-0.089 c 2.39823,-0.049 4.35869,0.023 4.35657,0.16 -0.002,0.13697 -0.37694,0.89703001 -0.83293,1.68903001 -0.95105,1.65187 -16.6117,29.2671999 -19.32676,34.0799999 -0.99287,1.76 -5.19341,9.176 -9.33452,16.48 -4.14111,7.304 -11.24052,19.832 -15.77648,27.84 -4.53596,8.008 -9.3855,16.5593 -10.77677,19.00289 -1.39127,2.44359 -2.47653,4.49593 -2.4117,4.56077 0.0648,0.0648 29.55913,0.0815 65.54288,0.0371 l 65.424999,-0.0808 -10.68771,-18.88 c -5.87824,-10.384 -17.49332,-30.904 -25.81129,-45.6 -8.317969,-14.696 -15.412729,-27.224 -15.766129,-27.84 -4.04452,-7.0498899 -6.15974,-10.88665991 -6.15974,-11.17308991 0,-0.2473 11.14039,-0.34686999897 38.799999,-0.346759998966737 L 163.34603,1.5009103e-4 164.65319,2.3200001 c 2.72139,4.82977 5.61928,9.9462399 10.19482,17.9998499 2.59979,4.576 7.54462,13.288 10.98852,19.36 3.44389,6.072 8.91909,15.72 12.1671,21.44 3.24802,5.72 6.79964,11.984 7.8925,13.92 1.09285,1.936 4.15292,7.336 6.80015,12 11.35119,19.99904 13.84976,24.42419 13.84976,24.52901 0,0.061 -2.00148,0.11099 -4.44772,0.11099 h -4.44772 l -10.00703,-17.68 c -5.50386,-9.724 -10.82001,-19.12 -11.81367,-20.88 -0.99366,-1.76 -8.41352,-14.864 -16.48858,-29.12 -8.07507,-14.256 -15.57164,-27.504 -16.65907,-29.44 -1.08742,-1.936 -2.401,-4.24 -2.91906,-5.1199999 l -0.94192,-1.6 -30.01249,-0.0816 c -25.96726,-0.0707 -29.988729,-0.0198 -29.836249,0.37761 0.0969,0.2526 1.966059,3.6013399 4.153619,7.4416499 2.18756,3.84031 8.98676,15.83838 15.10932,26.66238 6.12257,10.824 12.02802,21.264 13.12322,23.2 1.0952,1.936 2.9272,5.176 4.07111,7.2 1.14391,2.024 6.5624,11.59143 12.04109,21.26096 5.47868,9.66952 9.85187,17.66152 9.71819,17.76 -0.13367,0.0985 -35.55905,0.14275 -78.723049,0.0984 z"
     id="path1" />
</svg>
